<svg width="42" height="29" viewBox="0 0 42 29" fill="none" xmlns="http://www.w3.org/2000/svg">
<path d="M31.4 7.67943L30.6 8.27943H30.6L31.4 7.67943ZM41 23.4794V24.4794C41.5523 24.4794 42 24.0317 42 23.4794H41ZM5 24.4794C5.55228 24.4794 6 24.0317 6 23.4794C6 22.9271 5.55228 22.4794 5 22.4794V24.4794ZM36 22.4794C35.4477 22.4794 35 22.9271 35 23.4794C35 24.0317 35.4477 24.4794 36 24.4794V22.4794ZM2 4.47943V3.47943C1.63973 3.47943 1.30731 3.67322 1.1298 3.98673C0.952294 4.30024 0.957149 4.685 1.14251 4.99393L2 4.47943ZM29 11.4794C28.4477 11.4794 28 11.9271 28 12.4794C28 13.0317 28.4477 13.4794 29 13.4794V11.4794ZM3.5 6.97943L4.43335 7.33841C4.54385 7.0511 4.51587 6.7289 4.35749 6.46494L3.5 6.97943ZM1 13.4794L0.0666544 13.1205C0.0225947 13.235 0 13.3567 0 13.4794H1ZM27 24.4794C27.5523 24.4794 28 24.0317 28 23.4794C28 22.9271 27.5523 22.4794 27 22.4794V24.4794ZM14 22.4794C13.4477 22.4794 13 22.9271 13 23.4794C13 24.0317 13.4477 24.4794 14 24.4794V22.4794ZM23 3.47943C22.4477 3.47943 22 3.92715 22 4.47943C22 5.03172 22.4477 5.47943 23 5.47943V3.47943ZM5 5.47943C5.55228 5.47943 6 5.03172 6 4.47943C6 3.92715 5.55228 3.47943 5 3.47943V5.47943ZM40.5547 16.1826L40 17.0146L40.5547 16.1826ZM15 5.47943C15 4.92715 14.5523 4.47943 14 4.47943C13.4477 4.47943 13 4.92715 13 5.47943H15ZM14 8.33657H13C13 8.5788 13.0879 8.81279 13.2474 8.99508L14 8.33657ZM14.2474 10.1379C14.6111 10.5536 15.2429 10.5957 15.6585 10.232C16.0741 9.86833 16.1163 9.23656 15.7526 8.82093L14.2474 10.1379ZM19 7.47943C19 10.2409 16.7614 12.4794 14 12.4794V14.4794C17.866 14.4794 21 11.3454 21 7.47943H19ZM14 12.4794C11.2386 12.4794 9 10.2409 9 7.47943H7C7 11.3454 10.134 14.4794 14 14.4794V12.4794ZM9 7.47943C9 4.71801 11.2386 2.47943 14 2.47943V0.479431C10.134 0.479431 7 3.61344 7 7.47943H9ZM14 2.47943C16.7614 2.47943 19 4.71801 19 7.47943H21C21 3.61344 17.866 0.479431 14 0.479431V2.47943ZM30.6 8.27943L34.2 13.0794L35.8 11.8794L32.2 7.07943L30.6 8.27943ZM40 17.0146V23.4794H42V17.0146H40ZM3 24.4794H5V22.4794H3V24.4794ZM35 11.4794H29V13.4794H35V11.4794ZM41.1094 15.3505L35.5547 11.6474L34.4453 13.3115L40 17.0146L41.1094 15.3505ZM1.14251 4.99393L2.64251 7.49393L4.35749 6.46494L2.85749 3.96494L1.14251 4.99393ZM2.56665 6.62045L0.0666544 13.1205L1.93335 13.8384L4.43335 7.33841L2.56665 6.62045ZM0 21.4794C0 23.1363 1.34315 24.4794 3 24.4794V22.4794C2.44772 22.4794 2 22.0317 2 21.4794H0ZM32.2 7.07943C30.5003 4.81318 27.8328 3.47943 25 3.47943V5.47943C27.2033 5.47943 29.278 6.51679 30.6 8.27943L32.2 7.07943ZM35 22.9794C35 24.9124 33.433 26.4794 31.5 26.4794V28.4794C34.5376 28.4794 37 26.017 37 22.9794H35ZM31.5 26.4794C29.567 26.4794 28 24.9124 28 22.9794H26C26 26.017 28.4624 28.4794 31.5 28.4794V26.4794ZM28 22.9794C28 21.0464 29.567 19.4794 31.5 19.4794V17.4794C28.4624 17.4794 26 19.9419 26 22.9794H28ZM31.5 19.4794C33.433 19.4794 35 21.0464 35 22.9794H37C37 19.9419 34.5376 17.4794 31.5 17.4794V19.4794ZM13 22.9794C13 24.9124 11.433 26.4794 9.5 26.4794V28.4794C12.5376 28.4794 15 26.017 15 22.9794H13ZM9.5 26.4794C7.567 26.4794 6 24.9124 6 22.9794H4C4 26.017 6.46243 28.4794 9.5 28.4794V26.4794ZM6 22.9794C6 21.0464 7.567 19.4794 9.5 19.4794V17.4794C6.46243 17.4794 4 19.9419 4 22.9794H6ZM9.5 19.4794C11.433 19.4794 13 21.0464 13 22.9794H15C15 19.9419 12.5376 17.4794 9.5 17.4794V19.4794ZM27 22.4794H14V24.4794H27V22.4794ZM0 13.4794V21.4794H2V13.4794H0ZM41 22.4794H36V24.4794H41V22.4794ZM25 3.47943H23V5.47943H25V3.47943ZM5 3.47943H2V5.47943H5V3.47943ZM42 17.0146C42 16.3459 41.6658 15.7214 41.1094 15.3505L40 17.0146H42ZM13 5.47943V8.33657H15V5.47943H13ZM13.2474 8.99508L14.2474 10.1379L15.7526 8.82093L14.7526 7.67807L13.2474 8.99508Z" fill="#06BEFB"/>
</svg>
