<svg width="16" height="16" viewBox="0 0 16 16" fill="none" xmlns="http://www.w3.org/2000/svg">
<path d="M11.9997 14C11.2633 14 10.6663 13.403 10.6663 12.6666C10.6663 11.9303 11.2633 11.3333 11.9997 11.3333C12.7361 11.3333 13.333 11.9303 13.333 12.6666C13.333 13.403 12.7361 14 11.9997 14Z" stroke="#885407" stroke-linecap="round" stroke-linejoin="round"/>
<path d="M4.66667 14C3.93029 14 3.33333 13.403 3.33333 12.6666C3.33333 11.9303 3.93029 11.3333 4.66667 11.3333C5.40305 11.3333 6 11.9303 6 12.6666C6 13.403 5.40305 14 4.66667 14Z" stroke="#885407" stroke-linecap="round" stroke-linejoin="round"/>
<path d="M10.667 12H6.00033" stroke="#885407" stroke-linecap="round" stroke-linejoin="round"/>
<path d="M10.5 12C10.5 12.2761 10.2761 12.5 10 12.5C9.72386 12.5 9.5 12.2761 9.5 12H10.5ZM1.83333 3.33333C1.83333 3.60948 1.60948 3.83333 1.33333 3.83333C1.05719 3.83333 0.833333 3.60948 0.833333 3.33333H1.83333ZM9.5 12V6H10.5V12H9.5ZM6 2.5H2.33333V1.5H6V2.5ZM1.83333 3V3.33333H0.833333V3H1.83333ZM2.33333 2.5C2.05719 2.5 1.83333 2.72386 1.83333 3H0.833333C0.833333 2.17157 1.50491 1.5 2.33333 1.5V2.5ZM9.5 6C9.5 4.067 7.933 2.5 6 2.5V1.5C8.48528 1.5 10.5 3.51472 10.5 6H9.5Z" fill="#885407"/>
<path d="M6 5.5C6.27614 5.5 6.5 5.72386 6.5 6C6.5 6.27614 6.27614 6.5 6 6.5V5.5ZM0.666667 6.5C0.390524 6.5 0.166667 6.27614 0.166667 6C0.166667 5.72386 0.390524 5.5 0.666667 5.5V6.5ZM6 6.5H0.666667V5.5H6V6.5Z" fill="#885407"/>
<path d="M6 7.5C6.27614 7.5 6.5 7.72386 6.5 8C6.5 8.27614 6.27614 8.5 6 8.5V7.5ZM2.66667 8.5C2.39052 8.5 2.16667 8.27614 2.16667 8C2.16667 7.72386 2.39052 7.5 2.66667 7.5V8.5ZM6 8.5H2.66667V7.5H6V8.5Z" fill="#885407"/>
<path d="M13.333 7.5C13.6092 7.5 13.833 7.72386 13.833 8C13.833 8.27614 13.6092 8.5 13.333 8.5V7.5ZM9.99967 8.5C9.72353 8.5 9.49967 8.27614 9.49967 8C9.49967 7.72386 9.72353 7.5 9.99967 7.5V8.5ZM13.333 8.5H9.99967V7.5H13.333V8.5Z" fill="#885407"/>
<path d="M1.33301 10.6667V11C1.33301 11.5523 1.78072 12 2.33301 12H3.33301" stroke="#885407" stroke-linecap="round"/>
<path d="M9.99967 5.33331L11.8071 5.33331C12.0053 5.33325 12.1995 5.39067 12.368 5.49913C12.5366 5.60759 12.6728 5.76281 12.7615 5.94739L13.333 7.99998L14.3073 8.32476C14.9199 8.52893 15.333 9.10214 15.333 9.74778V10.5C15.333 11.3284 14.6614 12 13.833 12H13.333" stroke="#885407" stroke-linecap="round" stroke-linejoin="round"/>
</svg>
