<svg width="42" height="29" viewBox="0 0 42 29" fill="none" xmlns="http://www.w3.org/2000/svg">
<path d="M39 12.4794C39 11.9271 38.5523 11.4794 38 11.4794C37.4477 11.4794 37 11.9271 37 12.4794H39ZM5 12.4794C5 11.9271 4.55228 11.4794 4 11.4794C3.44772 11.4794 3 11.9271 3 12.4794H5ZM6 6.47943H15V4.47943H6V6.47943ZM16 5.47943V3.47943H14V5.47943H16ZM17 2.47943H25V0.479431H17V2.47943ZM15 6.47943H27V4.47943H15V6.47943ZM27 6.47943H36V4.47943H27V6.47943ZM26 3.47943V5.47943H28V3.47943H26ZM25 2.47943C25.5523 2.47943 26 2.92715 26 3.47943H28C28 1.82258 26.6569 0.479431 25 0.479431V2.47943ZM3 24.4794C3 26.1363 4.34315 27.4794 6 27.4794V25.4794C5.44772 25.4794 5 25.0317 5 24.4794H3ZM37 24.4794C37 25.0317 36.5523 25.4794 36 25.4794V27.4794C37.6569 27.4794 39 26.1363 39 24.4794H37ZM36 6.47943C36.5523 6.47943 37 6.92715 37 7.47943H39C39 5.82258 37.6569 4.47943 36 4.47943V6.47943ZM16 3.47943C16 2.92715 16.4477 2.47943 17 2.47943V0.479431C15.3431 0.479431 14 1.82258 14 3.47943H16ZM6 4.47943C4.34315 4.47943 3 5.82258 3 7.47943H5C5 6.92715 5.44772 6.47943 6 6.47943V4.47943ZM32 19.4794C35.866 19.4794 39 16.3454 39 12.4794H37C37 15.2409 34.7614 17.4794 32 17.4794V19.4794ZM10 17.4794C7.23858 17.4794 5 15.2409 5 12.4794H3C3 16.3454 6.13401 19.4794 10 19.4794V17.4794ZM19 22.4794H23V20.4794H19V22.4794ZM23 14.4794H19V16.4794H23V14.4794ZM23 16.4794H25C25 15.3749 24.1046 14.4794 23 14.4794V16.4794ZM23 22.4794C24.1046 22.4794 25 21.584 25 20.4794H23V22.4794ZM19 20.4794H17C17 21.584 17.8954 22.4794 19 22.4794V20.4794ZM19 14.4794C17.8954 14.4794 17 15.3749 17 16.4794H19V14.4794ZM5 24.4794V7.47943H3V24.4794H5ZM37 7.47943V24.4794H39V7.47943H37ZM36 25.4794H6V27.4794H36V25.4794ZM23 19.4794H32V17.4794H23V19.4794ZM10 19.4794H19V17.4794H10V19.4794ZM25 20.4794V16.4794H23V20.4794H25ZM17 16.4794V20.4794H19V16.4794H17Z" fill="#06BEFB"/>
</svg>
