<svg width="42" height="29" viewBox="0 0 42 29" fill="none" xmlns="http://www.w3.org/2000/svg">
<path d="M31.4 7.67943L30.6 8.27943H30.6L31.4 7.67943ZM41 16.4794H42V15.9442L41.5547 15.6474L41 16.4794ZM41 23.4794V24.4794C41.5523 24.4794 42 24.0317 42 23.4794H41ZM5 24.4794C5.55228 24.4794 6 24.0317 6 23.4794C6 22.9271 5.55228 22.4794 5 22.4794V24.4794ZM36 22.4794C35.4477 22.4794 35 22.9271 35 23.4794C35 24.0317 35.4477 24.4794 36 24.4794V22.4794ZM2 4.47943V3.47943C1.63973 3.47943 1.30731 3.67322 1.1298 3.98673C0.952294 4.30024 0.957149 4.685 1.14251 4.99393L2 4.47943ZM29 11.4794C28.4477 11.4794 28 11.9271 28 12.4794C28 13.0317 28.4477 13.4794 29 13.4794V11.4794ZM3.5 6.97943L4.43335 7.33841C4.54385 7.0511 4.51587 6.7289 4.35749 6.46494L3.5 6.97943ZM1 13.4794L0.0666544 13.1205C0.0225947 13.235 0 13.3567 0 13.4794H1ZM27 24.4794C27.5523 24.4794 28 24.0317 28 23.4794C28 22.9271 27.5523 22.4794 27 22.4794V24.4794ZM14 22.4794C13.4477 22.4794 13 22.9271 13 23.4794C13 24.0317 13.4477 24.4794 14 24.4794V22.4794ZM23 3.47943C22.4477 3.47943 22 3.92715 22 4.47943C22 5.03172 22.4477 5.47943 23 5.47943V3.47943ZM5 5.47943C5.55228 5.47943 6 5.03172 6 4.47943C6 3.92715 5.55228 3.47943 5 3.47943V5.47943ZM18.5 7.47943C18.5 8.03172 18.9477 8.47943 19.5 8.47943C20.0523 8.47943 20.5 8.03172 20.5 7.47943H18.5ZM13 14.4794C13.5523 14.4794 14 14.0317 14 13.4794C14 12.9271 13.5523 12.4794 13 12.4794V14.4794ZM16 6.47943C16.5523 6.47943 17 6.03172 17 5.47943C17 4.92715 16.5523 4.47943 16 4.47943V6.47943ZM12 4.47943C11.4477 4.47943 11 4.92715 11 5.47943C11 6.03172 11.4477 6.47943 12 6.47943V4.47943ZM14 10.4794C14.5523 10.4794 15 10.0317 15 9.47943C15 8.92715 14.5523 8.47943 14 8.47943V10.4794ZM12 8.47943C11.4477 8.47943 11 8.92715 11 9.47943C11 10.0317 11.4477 10.4794 12 10.4794V8.47943ZM17.5 14.4794L16.7929 15.1865C16.9886 15.3822 17.2567 15.4881 17.5333 15.4789C17.8099 15.4697 18.0703 15.3462 18.2526 15.1379L17.5 14.4794ZM16.7071 12.2723C16.3166 11.8818 15.6834 11.8818 15.2929 12.2723C14.9024 12.6628 14.9024 13.296 15.2929 13.6865L16.7071 12.2723ZM21.7526 11.1379C22.1163 10.7223 22.0741 10.0905 21.6585 9.72685C21.2429 9.36317 20.6111 9.40529 20.2474 9.82093L21.7526 11.1379ZM30.6 8.27943L34.2 13.0794L35.8 11.8794L32.2 7.07943L30.6 8.27943ZM40 16.4794V23.4794H42V16.4794H40ZM3 24.4794H5V22.4794H3V24.4794ZM35 11.4794H29V13.4794H35V11.4794ZM41.5547 15.6474L35.5547 11.6474L34.4453 13.3115L40.4453 17.3115L41.5547 15.6474ZM1.14251 4.99393L2.64251 7.49393L4.35749 6.46494L2.85749 3.96494L1.14251 4.99393ZM2.56665 6.62045L0.0666544 13.1205L1.93335 13.8384L4.43335 7.33841L2.56665 6.62045ZM0 21.4794C0 23.1363 1.34315 24.4794 3 24.4794V22.4794C2.44772 22.4794 2 22.0317 2 21.4794H0ZM32.2 7.07943C30.5003 4.81318 27.8328 3.47943 25 3.47943V5.47943C27.2033 5.47943 29.278 6.51679 30.6 8.27943L32.2 7.07943ZM35 22.9794C35 24.9124 33.433 26.4794 31.5 26.4794V28.4794C34.5376 28.4794 37 26.017 37 22.9794H35ZM31.5 26.4794C29.567 26.4794 28 24.9124 28 22.9794H26C26 26.017 28.4624 28.4794 31.5 28.4794V26.4794ZM28 22.9794C28 21.0464 29.567 19.4794 31.5 19.4794V17.4794C28.4624 17.4794 26 19.9419 26 22.9794H28ZM31.5 19.4794C33.433 19.4794 35 21.0464 35 22.9794H37C37 19.9419 34.5376 17.4794 31.5 17.4794V19.4794ZM13 22.9794C13 24.9124 11.433 26.4794 9.5 26.4794V28.4794C12.5376 28.4794 15 26.017 15 22.9794H13ZM9.5 26.4794C7.567 26.4794 6 24.9124 6 22.9794H4C4 26.017 6.46243 28.4794 9.5 28.4794V26.4794ZM6 22.9794C6 21.0464 7.567 19.4794 9.5 19.4794V17.4794C6.46243 17.4794 4 19.9419 4 22.9794H6ZM9.5 19.4794C11.433 19.4794 13 21.0464 13 22.9794H15C15 19.9419 12.5376 17.4794 9.5 17.4794V19.4794ZM27 22.4794H14V24.4794H27V22.4794ZM0 13.4794V21.4794H2V13.4794H0ZM41 22.4794H36V24.4794H41V22.4794ZM25 3.47943H23V5.47943H25V3.47943ZM5 3.47943H2V5.47943H5V3.47943ZM7.5 2.47943V12.4794H9.5V2.47943H7.5ZM20.5 7.47943V2.47943H18.5V7.47943H20.5ZM18.5 0.479431H9.5V2.47943H18.5V0.479431ZM9.5 14.4794H13V12.4794H9.5V14.4794ZM20.5 2.47943C20.5 1.37486 19.6046 0.479431 18.5 0.479431V2.47943V2.47943H20.5ZM7.5 12.4794C7.5 13.584 8.39543 14.4794 9.5 14.4794V12.4794H7.5ZM9.5 2.47943V0.479431C8.39543 0.479431 7.5 1.37486 7.5 2.47943H9.5ZM16 4.47943H12V6.47943H16V4.47943ZM14 8.47943H12V10.4794H14V8.47943ZM18.2071 13.7723L16.7071 12.2723L15.2929 13.6865L16.7929 15.1865L18.2071 13.7723ZM18.2526 15.1379L21.7526 11.1379L20.2474 9.82093L16.7474 13.8209L18.2526 15.1379Z" fill="#06BEFB"/>
</svg>
