<svg width="42" height="29" viewBox="0 0 42 29" fill="none" xmlns="http://www.w3.org/2000/svg">
<path d="M31.4 7.67943L30.6 8.27943L30.6 8.27943L31.4 7.67943ZM41 16.4794H42V15.9442L41.5547 15.6474L41 16.4794ZM41 23.4794V24.4794C41.5523 24.4794 42 24.0317 42 23.4794H41ZM5 24.4794C5.55228 24.4794 6 24.0317 6 23.4794C6 22.9271 5.55228 22.4794 5 22.4794V24.4794ZM36 22.4794C35.4477 22.4794 35 22.9271 35 23.4794C35 24.0317 35.4477 24.4794 36 24.4794V22.4794ZM2 4.47943V3.47943C1.63973 3.47943 1.30731 3.67322 1.1298 3.98673C0.952294 4.30024 0.957149 4.685 1.14251 4.99393L2 4.47943ZM26 12.4794L25.2 13.0794L25.5 13.4794H26V12.4794ZM3.5 6.97943L4.43335 7.33841C4.54385 7.0511 4.51587 6.7289 4.35749 6.46494L3.5 6.97943ZM1 13.4794L0.0666544 13.1205C0.0225947 13.235 0 13.3567 0 13.4794H1ZM23 8.47943L23.8 7.87943C23.6111 7.62763 23.3148 7.47943 23 7.47943V8.47943ZM15 7.47943C14.4477 7.47943 14 7.92715 14 8.47943C14 9.03172 14.4477 9.47943 15 9.47943V7.47943ZM5 14.4794C5.55228 14.4794 6 14.0317 6 13.4794C6 12.9271 5.55228 12.4794 5 12.4794V14.4794ZM30.6 8.27943L34.2 13.0794L35.8 11.8794L32.2 7.07943L30.6 8.27943ZM40 16.4794V23.4794H42V16.4794H40ZM3 24.4794H5V22.4794H3V24.4794ZM35 11.4794H26V13.4794H35V11.4794ZM41.5547 15.6474L35.5547 11.6474L34.4453 13.3115L40.4453 17.3115L41.5547 15.6474ZM1.14251 4.99393L2.64251 7.49393L4.35749 6.46494L2.85749 3.96494L1.14251 4.99393ZM2.56665 6.62045L0.0666544 13.1205L1.93335 13.8384L4.43335 7.33841L2.56665 6.62045ZM26.8 11.8794L23.8 7.87943L22.2 9.07943L25.2 13.0794L26.8 11.8794ZM23 7.47943H15V9.47943H23V7.47943ZM1 14.4794H5V12.4794H1V14.4794ZM0 21.4794C0 23.1363 1.34315 24.4794 3 24.4794V22.4794C2.44772 22.4794 2 22.0317 2 21.4794H0ZM32.2 7.07943C30.5003 4.81318 27.8328 3.47943 25 3.47943V5.47943C27.2033 5.47943 29.278 6.51679 30.6 8.27943L32.2 7.07943ZM35 22.9794C35 24.9124 33.433 26.4794 31.5 26.4794V28.4794C34.5376 28.4794 37 26.017 37 22.9794H35ZM31.5 26.4794C29.567 26.4794 28 24.9124 28 22.9794H26C26 26.017 28.4624 28.4794 31.5 28.4794V26.4794ZM28 22.9794C28 21.0464 29.567 19.4794 31.5 19.4794V17.4794C28.4624 17.4794 26 19.9419 26 22.9794H28ZM31.5 19.4794C33.433 19.4794 35 21.0464 35 22.9794H37C37 19.9419 34.5376 17.4794 31.5 17.4794V19.4794ZM13 22.9794C13 24.9124 11.433 26.4794 9.5 26.4794V28.4794C12.5376 28.4794 15 26.017 15 22.9794H13ZM9.5 26.4794C7.567 26.4794 6 24.9124 6 22.9794H4C4 26.017 6.46243 28.4794 9.5 28.4794V26.4794ZM6 22.9794C6 21.0464 7.567 19.4794 9.5 19.4794V17.4794C6.46243 17.4794 4 19.9419 4 22.9794H6ZM9.5 19.4794C11.433 19.4794 13 21.0464 13 22.9794H15C15 19.9419 12.5376 17.4794 9.5 17.4794V19.4794ZM28 22.4794H14V24.4794H28V22.4794ZM0 13.4794V21.4794H2V13.4794H0ZM41 22.4794H36V24.4794H41V22.4794ZM25 3.47943H2V5.47943H25V3.47943Z" fill="#06BEFB"/>
</svg>
