<svg width="42" height="29" viewBox="0 0 42 29" fill="none" xmlns="http://www.w3.org/2000/svg">
<path d="M6 11.4794V9.47943C6 5.61344 9.13401 2.47943 13 2.47943H21M36 11.4794V9.47943C36 5.61344 32.866 2.47943 29 2.47943H21M36 11.4794H35C33.8954 11.4794 33 12.3749 33 13.4794V18.4794H21M36 11.4794H37C38.1046 11.4794 39 12.3749 39 13.4794V18.4794C39 21.7931 36.3137 24.4794 33 24.4794H32M32 24.4794H10M32 24.4794V27.4794M10 24.4794H9C5.68629 24.4794 3 21.7931 3 18.4794V13.4794C3 12.3749 3.89543 11.4794 5 11.4794H7C8.10457 11.4794 9 12.3749 9 13.4794V18.4794H21M10 24.4794V27.4794M21 18.4794V2.47943" stroke="#06BEFB" stroke-width="2" stroke-linecap="round" stroke-linejoin="round"/>
</svg>
