<svg width="24" height="24" viewBox="0 0 24 24" fill="none" xmlns="http://www.w3.org/2000/svg">
<path fill-rule="evenodd" clip-rule="evenodd" d="M7.14889 0.45002C8.78994 0.0931976 10.499 0.215604 12.0724 0.802658C13.6458 1.38971 15.0174 2.41667 16.0236 3.76121C17.0299 5.10575 17.6285 6.7112 17.7481 8.38633C17.7776 8.79949 17.4666 9.15834 17.0534 9.18784C16.6403 9.21734 16.2814 8.90632 16.2519 8.49316C16.1528 7.10486 15.6567 5.7743 14.8227 4.65999C13.9888 3.54567 12.8521 2.69456 11.5481 2.20803C10.244 1.72149 8.82765 1.62005 7.4676 1.91577C6.10755 2.21149 4.86117 2.89192 3.87692 3.87601C2.89266 4.8601 2.21201 6.10637 1.91605 7.46637C1.62008 8.82638 1.72127 10.2428 2.20757 11.5469C2.69387 12.851 3.54478 13.9879 4.65894 14.822C5.7731 15.6562 7.10355 16.1525 8.49182 16.2519C8.90498 16.2815 9.21593 16.6404 9.18636 17.0535C9.15679 17.4667 8.79788 17.7777 8.38473 17.7481C6.70962 17.6282 5.10429 17.0293 3.75994 16.0228C2.41559 15.0163 1.38888 13.6446 0.802108 12.071C0.215339 10.4974 0.0932382 8.7884 0.45035 7.14741C0.807462 5.50642 1.62874 4.00267 2.81635 2.81526C4.00396 1.62785 5.50785 0.806842 7.14889 0.45002ZM23.824 20.5556C23.824 20.9535 23.666 21.335 23.3847 21.6163L21.6169 23.3841C21.3356 23.6654 20.9541 23.8234 20.5563 23.8234C20.1585 23.8234 19.7769 23.6654 19.4956 23.3841L15.5463 19.4348L13.9325 21.8555C13.7742 22.0929 13.495 22.22 13.2121 22.1833C12.9291 22.1466 12.6915 21.9526 12.599 21.6828L8.35633 9.30839C8.26344 9.03748 8.33296 8.73731 8.53548 8.5348C8.738 8.33229 9.03817 8.2628 9.30908 8.35571L21.6827 12.5991C21.9526 12.6916 22.1466 12.9292 22.1832 13.2122C22.2199 13.4951 22.0928 13.7743 21.8554 13.9326L19.4354 15.5457L23.3847 19.495C23.666 19.7763 23.824 20.1578 23.824 20.5556ZM20.5563 22.3234L22.324 20.5556L17.7278 15.9594C17.569 15.8006 17.4897 15.5788 17.5118 15.3552C17.534 15.1316 17.6552 14.9297 17.8422 14.8051L19.7612 13.5258L10.2724 10.2718L13.5259 19.7613L14.8057 17.8415C14.9304 17.6546 15.1322 17.5333 15.3558 17.5112C15.5794 17.489 15.8012 17.5683 15.9601 17.7272L20.5563 22.3234ZM11.2536 3.61467C10.175 3.22719 9.00462 3.14665 7.88087 3.38191C6.75702 3.6172 5.72354 4.15926 4.9049 4.94735C4.08598 5.7357 3.51646 6.73738 3.26845 7.83466C3.17714 8.23868 3.43064 8.64023 3.83466 8.73155C4.23868 8.82286 4.64023 8.56936 4.73155 8.16534C4.91373 7.35931 5.33351 6.61685 5.9452 6.02798C6.55716 5.43886 7.33529 5.02866 8.18824 4.85008C9.0413 4.67149 9.92966 4.73292 10.7464 5.02634C11.1363 5.16638 11.5658 4.96389 11.7058 4.57407C11.8459 4.18425 11.6434 3.75471 11.2536 3.61467Z" fill="#767676"/>
</svg>
