<?xml version="1.0" encoding="utf-8"?>
<!-- Generator: Adobe Illustrator 26.3.1, SVG Export Plug-In . SVG Version: 6.00 Build 0)  -->
<svg version="1.1" id="Layer_1" xmlns="http://www.w3.org/2000/svg" xmlns:xlink="http://www.w3.org/1999/xlink" x="0px" y="0px"
	 viewBox="0 0 1920 1920" style="enable-background:new 0 0 1920 1920;" xml:space="preserve">
<style type="text/css">
	.st0{fill:#FFFFFF;}
</style>
<g>
	<path class="st0" d="M1467.2,0c-250.1,0-452.8,202.7-452.8,452.8s202.7,452.8,452.8,452.8S1920,702.9,1920,452.8S1717.2,0,1467.2,0
		z M1467.2,685.8c-128.6,0-232.9-104.3-232.9-232.9c0-128.6,104.3-232.9,232.9-232.9c128.6,0,232.9,104.3,232.9,232.9
		C1700.1,581.5,1595.8,685.8,1467.2,685.8z"/>
	<polygon class="st0" points="685.8,1014.3 685.8,1600.7 281.9,1014.3 0,1014.3 0,1920 219.9,1920 219.9,1243.7 685.8,1920 
		905.7,1920 905.7,1014.3 	"/>
	<polygon class="st0" points="1663.9,1920 1920,1920 1553.9,1395.8 1895,1014.3 1646.4,1014.3 1234.2,1493.6 1234.2,1014.3 
		1014.3,1014.3 1014.3,1920 1234.2,1920 1234.2,1753.3 1410.1,1556.6 	"/>
	<polygon class="st0" points="685.8,0 685.8,354.9 219.9,354.9 219.9,0 0,0 0,905.7 219.9,905.7 219.9,550.8 685.8,550.8 
		685.8,905.7 905.7,905.7 905.7,0 	"/>
</g>
</svg>
