<svg width="42" height="29" viewBox="0 0 42 29" fill="none" xmlns="http://www.w3.org/2000/svg">
<path d="M9 13.4794L24 1.47943L39 13.4794M36 27.4794H12M36 27.4794H41M36 27.4794V5.47943H32V7.87943M12 27.4794V11.0794M12 27.4794H5C2.79086 27.4794 1 25.6886 1 23.4794C1 21.2703 2.79086 19.4794 5 19.4794C7.20914 19.4794 9 21.2703 9 23.4794H10C11.1046 23.4794 12 24.3749 12 25.4794V27.4794ZM27 26.4794V20.4794C27 19.9271 26.5523 19.4794 26 19.4794H22C21.4477 19.4794 21 19.9271 21 20.4794V26.4794M21 10.7294V13.2294C21 13.9198 21.5756 14.4794 22.2857 14.4794H25.7143C26.4244 14.4794 27 13.9198 27 13.2294V10.7294C27 10.0391 26.4244 9.47943 25.7143 9.47943H22.2857C21.5756 9.47943 21 10.0391 21 10.7294Z" stroke="#06BEFB" stroke-width="2" stroke-linecap="round" stroke-linejoin="round"/>
</svg>
