<svg width="42" height="29" viewBox="0 0 42 29" fill="none" xmlns="http://www.w3.org/2000/svg">
<path d="M9.82006 4.56633C13.5128 2.90762 17.8085 4.65527 19.4144 8.46959C19.8862 9.59071 20.073 10.7653 20.0084 11.9075L20.0208 28L8.23377 17.4054C7.30743 16.6578 6.54259 15.6676 6.0408 14.4756C4.43519 10.6613 6.12737 6.22471 9.82006 4.56633ZM21.6816 5.92129C23.6072 1.65669 28.5146 -0.188441 32.6434 1.80044C36.7723 3.78866 38.5584 8.85801 36.6332 13.1226C36.0671 14.376 35.244 15.4203 34.2584 16.2198L20.8155 27.9998L20.9224 10.0362C20.8408 8.66503 21.0802 7.25378 21.6816 5.92129ZM12.7276 7.14728C10.5313 7.14728 8.75088 8.9865 8.75088 11.255C8.75088 13.5235 10.5313 15.3627 12.7276 15.3627C14.9239 15.3627 16.7043 13.5235 16.7043 11.255C16.7043 8.9865 14.9239 7.14728 12.7276 7.14728ZM29.5951 4.96689C27.3315 4.96689 25.4961 6.86257 25.4961 9.20065C25.4961 11.5387 27.3315 13.4344 29.5951 13.4344C31.8586 13.4344 33.694 11.5387 33.694 9.20065C33.694 6.86257 31.8586 4.96689 29.5951 4.96689Z" fill="#E74C3B"/>
</svg>
