<svg width="40" height="40" viewBox="0 0 40 40" fill="none" xmlns="http://www.w3.org/2000/svg">
<path d="M30.566 0C25.3558 0 21.1321 4.22375 21.1321 9.43396C21.1321 14.6442 25.3558 18.8679 30.566 18.8679C35.7763 18.8679 40 14.6442 40 9.43396C40 4.22375 35.776 0 30.566 0ZM30.566 14.2867C27.886 14.2867 25.7135 12.114 25.7135 9.43416C25.7135 6.75417 27.886 4.58167 30.566 4.58167C33.2458 4.58167 35.4185 6.75417 35.4185 9.43416C35.4185 12.114 33.2458 14.2867 30.566 14.2867Z" fill="#570E2D"/>
<path d="M14.2867 21.1319V33.3485L5.87188 21.1319H0V40H4.58146V25.91L14.2867 40H18.8681V21.1319H14.2867Z" fill="#570E2D"/>
<path d="M34.664 40H40.0001L32.3734 29.0787L39.4795 21.1319H34.2995L25.7134 31.1171V21.1319H21.132V40H25.7134V36.5264L29.377 32.4294L34.664 40Z" fill="#570E2D"/>
<path d="M14.2867 0V7.39396H4.58146V0H0V18.8681H4.58146V11.4742H14.2867V18.8681H18.8681V0H14.2867Z" fill="#570E2D"/>
</svg>
