<svg width="42" height="29" viewBox="0 0 42 29" fill="none" xmlns="http://www.w3.org/2000/svg">
<path d="M15.5 13.4794H10.3576C9.67216 13.4985 8.99367 13.3322 8.38768 12.9969C7.7817 12.6615 7.26873 12.1683 6.89838 11.565L1 1.47943H4.89898L10.3576 5.47943H37C39.2091 5.47943 41 7.27029 41 9.47943C41 11.6886 39.2091 13.4794 37 13.4794H27M9 9.47943H2M15 13.4794L17.5714 11.4794H27V15.4794H17.5714L15 13.4794ZM31.0005 27.4794C30.5052 27.4796 30.0177 27.3571 29.5813 27.1229C29.1449 26.8887 28.7733 26.5501 28.4997 26.1373C28.226 25.7245 28.0587 25.2504 28.0129 24.7572C27.967 24.2641 28.044 23.7672 28.2368 23.3111C28.4297 22.8549 28.7325 22.4535 29.1182 22.1429C29.5039 21.8322 29.9605 21.6219 30.4473 21.5307C30.934 21.4395 31.4358 21.4703 31.9078 21.6202C32.3798 21.7702 32.8073 22.0347 33.1522 22.3901C33.3548 21.674 33.7532 21.0286 34.3026 20.5266C34.8519 20.0245 35.5304 19.6857 36.2617 19.5483C36.9931 19.4108 37.7482 19.4801 38.4423 19.7484C39.1365 20.0167 39.7419 20.4734 40.1907 21.067C40.6395 21.6607 40.9138 22.3678 40.9828 23.1088C41.0517 23.8498 40.9126 24.5954 40.581 25.2617C40.2495 25.928 39.7386 26.4885 39.1059 26.8803C38.4733 27.2721 37.7438 27.4796 36.9997 27.4794H31.0005ZM7 18.4794C6.3156 18.4784 5.65146 18.7116 5.11787 19.1402C4.58428 19.5687 4.21334 20.1669 4.06667 20.8354C3.75398 20.6142 3.38288 20.4903 3 20.4794C2.46957 20.4794 1.96086 20.6901 1.58579 21.0652C1.21071 21.4403 1 21.949 1 22.4794C1 23.0099 1.21071 23.5186 1.58579 23.8936C1.96086 24.2687 2.46957 24.4794 3 24.4794H7C7.79565 24.4794 8.55871 24.1634 9.12132 23.6008C9.68392 23.0381 10 22.2751 10 21.4794C10 20.6838 9.68392 19.9207 9.12132 19.3581C8.55871 18.7955 7.79565 18.4794 7 18.4794Z" stroke="#06BEFB" stroke-width="2" stroke-linecap="round" stroke-linejoin="round"/>
</svg>
