<svg width="42" height="29" viewBox="0 0 42 29" fill="none" xmlns="http://www.w3.org/2000/svg">
<path d="M19.8392 24.3086V10.6534C19.8392 9.18355 18.9501 8.45925 17.8876 8.45925C16.825 8.45925 15.9793 9.18355 15.9793 10.6534V24.3086H12.1193V10.6534C12.1193 9.18355 11.2736 8.45925 10.2111 8.45925C9.14848 8.45925 8.30277 9.18355 8.30277 10.6534V24.3086H4.42114V5.32772H8.15097V6.73371C8.47625 6.30766 8.95332 5.79639 9.43039 5.54075C9.97252 5.22121 10.6664 5.02948 11.382 5.02948C12.9217 5.02948 14.3095 5.79639 15.1552 6.96805C15.6323 6.43547 16.2612 5.8816 16.8684 5.51945C17.4539 5.1999 18.3429 5.00818 18.9284 5.00818C20.7283 5.00818 21.7041 5.47684 22.5932 6.47808C23.3522 7.3515 23.7208 8.39534 23.7208 10.5895V24.266H19.8392" fill="#172F3C"/>
<path d="M34.7565 24.2578V22.6388C34.4312 23.1075 34.0192 23.6187 33.5855 23.8957C33 24.3004 32.3711 24.5348 31.3953 24.5348C29.7906 24.5348 28.7497 24.0661 27.7739 22.9583C26.9932 22.0636 26.6029 20.615 26.6029 18.7191C26.6029 16.9935 27.2317 15.481 28.4027 14.4798C29.3569 13.649 30.5929 13.1803 32.8482 13.1803H34.5613V10.5601C34.5613 9.15407 33.9107 8.36586 32.6964 8.36586C32.1109 8.36586 31.6989 8.57889 31.417 8.89843C31.0049 9.32449 30.8315 9.87836 30.8315 10.6666H26.9065C26.9065 9.15407 27.3402 7.74807 28.5545 6.55511C29.4653 5.66039 31.0483 5 32.6313 5C34.236 5 35.754 5.40476 36.7298 6.40599C37.749 7.40723 38.4212 8.81322 38.4212 10.8796V24.2791H34.7565V24.2578ZM34.5396 15.8858H33.2602C32.4145 15.8858 31.7856 15.9497 31.2435 16.461C30.7664 16.887 30.4628 17.8243 30.4628 18.5912C30.4628 20.2742 31.1567 21.2115 32.4795 21.2115C33.6505 21.2115 34.5396 20.2316 34.5396 18.6978V15.8858Z" fill="#0098EB"/>
</svg>
