<svg width="42" height="29" viewBox="0 0 42 29" fill="none" xmlns="http://www.w3.org/2000/svg">
<path d="M36 7.97943V10.4794M5 8.47943H10.5L13 11.4794M17 16.4794V21.4794H23L27 13.4794L33 10.9794V7.47943M17 16.4794L13 11.4794M17 16.4794L12.5 18.4794M13 11.4794H20L21.4472 8.585C21.786 7.90744 22.4785 7.47943 23.2361 7.47943H33M33 7.47943L26 2.47943M32 15.9794L30 12.4794M41 21.4794C41 24.7931 38.3137 27.4794 35 27.4794C31.6863 27.4794 29 24.7931 29 21.4794C29 18.1657 31.6863 15.4794 35 15.4794C38.3137 15.4794 41 18.1657 41 21.4794ZM13 21.4794C13 24.7931 10.3137 27.4794 7 27.4794C3.68629 27.4794 1 24.7931 1 21.4794C1 18.1657 3.68629 15.4794 7 15.4794C10.3137 15.4794 13 18.1657 13 21.4794Z" stroke="#06BEFB" stroke-width="2" stroke-linecap="round" stroke-linejoin="round"/>
</svg>
