<svg width="42" height="29" viewBox="0 0 42 29" fill="none" xmlns="http://www.w3.org/2000/svg">
<path d="M35 25.4794L38.6382 18.203C38.8044 17.8706 38.5627 17.4794 38.191 17.4794H3.80902C3.43733 17.4794 3.19558 17.8706 3.3618 18.203L7 25.4794M1 27.3982C2.44789 27.5944 3.91752 27.4341 5.30158 26.9291C6.68565 26.4242 7.94921 25.5872 9 24.4794C9.75791 25.3983 10.6835 26.1328 11.7171 26.6356C12.7506 27.1383 13.869 27.3981 15 27.3981C16.131 27.3981 17.2494 27.1383 18.2829 26.6356C19.3165 26.1328 20.2421 25.3983 21 24.4794C21.7579 25.3983 22.6835 26.1328 23.7171 26.6356C24.7506 27.1383 25.869 27.3981 27 27.3981C28.131 27.3981 29.2494 27.1383 30.2829 26.6356C31.3165 26.1328 32.2421 25.3983 33 24.4794C34.0508 25.5872 35.3143 26.4242 36.6984 26.9291C38.0825 27.4341 39.5521 27.5944 41 27.3982M13 2.47943L11 4.47943L9 2.47943M7 8.47943L5 10.4794L3 8.47943M21 17.4794V13.4794M21 13.4794H35L21 1.47943V13.4794Z" stroke="#06BEFB" stroke-width="2" stroke-linecap="round" stroke-linejoin="round"/>
</svg>
