<svg width="42" height="29" viewBox="0 0 42 29" fill="none" xmlns="http://www.w3.org/2000/svg">
<path d="M29.0001 11.4794C29.0001 9.27029 30.791 7.47943 33.0001 7.47943M25.0001 10.4794C21.0911 10.7367 18.0001 13.9889 18.0001 17.963C18.0001 22.1052 21.358 25.463 25.5001 25.463C29.3732 25.463 32.5606 22.5272 32.9583 18.7596M15.0001 24.4794H3C2.44772 24.4794 2 24.0317 2 23.4794L2 5.47944C2 4.92715 2.44772 4.47944 3 4.47944L23.0001 4.47944M7.00011 20.4794H6.00001M7.00011 8.47943H6.00001M14.0001 17.2656C13.6651 17.4035 13.2995 17.4794 12.9166 17.4794C11.3059 17.4794 10.0001 16.1363 10.0001 14.4794C10.0001 12.8226 11.3059 11.4794 12.9166 11.4794C13.2995 11.4794 13.6651 11.5553 14.0001 11.6933M40.0001 10.9794C40.0001 15.1216 36.6422 18.4794 32.5001 18.4794C28.358 18.4794 25.0001 15.1216 25.0001 10.9794C25.0001 6.8373 28.358 3.47943 32.5001 3.47943C36.6422 3.47943 40.0001 6.8373 40.0001 10.9794Z" stroke="#06BEFB" stroke-width="2" stroke-linecap="round" stroke-linejoin="round"/>
</svg>
