<svg width="25" height="17" viewBox="0 0 25 17" fill="none" xmlns="http://www.w3.org/2000/svg">
<path d="M13.3818 1.71482L12.2386 2.85805L11.0954 1.71482M1.37793 15.4336H24.2425M3.09277 8.00258V15.4336M12.2386 8.00258V15.4336M9.38053 15.4336L9.38053 11.4323C9.38053 11.1166 9.12461 10.8607 8.80892 10.8607H6.52246C6.20677 10.8607 5.95085 11.1166 5.95085 11.4323L5.95085 15.4336M1.37793 9.14581L7.66569 4.00128L13.9535 9.14581M19.6696 11.4323H23.0993L21.3844 8.28839H23.0993L21.0986 4.8587H22.8135L19.6696 0.571594L16.64 4.8587H18.3549L16.2399 8.28839H17.9548L16.2399 11.4323H19.6696ZM19.6696 11.4323V15.4336" stroke="#06BEFB" stroke-width="1.14323" stroke-linecap="round" stroke-linejoin="round"/>
</svg>
